<svg width="20" height="20" viewBox="0 0 20 20" fill="none" xmlns="http://www.w3.org/2000/svg">
<g id="Group 90">
<path id="Subtract" fill-rule="evenodd" clip-rule="evenodd" d="M13.0728 -0.000366211H6.93726C1.33299 -0.000366211 -0.000366211 1.33299 -0.000366211 6.92685V13.0624C-0.000366211 18.6667 1.32258 20 6.92685 20H13.0624C18.6667 20 20 18.6771 20 13.0728V6.93726C20 1.33299 18.6771 -0.000366211 13.0728 -0.000366211ZM15.9375 6.35419C16.375 6.35419 16.4687 6.57294 16.375 6.88545C16.2185 7.64002 14.8102 9.67898 14.4839 10.1514C14.4408 10.2138 14.4166 10.2489 14.4166 10.2501C14.2603 10.4897 14.1978 10.6147 14.4166 10.8959C14.4911 11.0077 14.6607 11.1738 14.8547 11.3637C15.0404 11.5456 15.2485 11.7493 15.4166 11.948C16.0416 12.6564 16.5104 13.2502 16.6458 13.6564C16.7708 14.0627 16.5625 14.271 16.1458 14.271H14.6874C14.3005 14.271 14.1029 14.051 13.6787 13.5788C13.4976 13.3772 13.2751 13.1296 12.9791 12.8335C12.1145 12.0001 11.7499 11.896 11.5311 11.896C11.229 11.896 11.1457 11.9793 11.1457 12.396V13.7085C11.1457 14.0627 11.0311 14.271 10.104 14.271C8.56231 14.271 6.86436 13.3335 5.65601 11.6043C3.84347 9.07299 3.35388 7.15629 3.35388 6.77086C3.35388 6.55211 3.43722 6.35419 3.85389 6.35419H5.31225C5.68726 6.35419 5.82268 6.52086 5.96851 6.90628C6.67686 8.98965 7.88522 10.8022 8.37481 10.8022C8.56231 10.8022 8.64565 10.7189 8.64565 10.2501V8.10422C8.60723 7.50232 8.39563 7.23892 8.23827 7.04304C8.13963 6.92025 8.0623 6.82399 8.0623 6.68753C8.0623 6.53127 8.20814 6.35419 8.43731 6.35419H10.729C11.0415 6.35419 11.1457 6.51044 11.1457 6.88545V9.78133C11.1457 10.0938 11.2811 10.198 11.3749 10.198C11.5624 10.198 11.7082 10.0938 12.052 9.75008C13.1041 8.5834 13.8437 6.77086 13.8437 6.77086C13.9374 6.55211 14.1041 6.35419 14.4791 6.35419H15.9375Z" fill="#0F1113"/>
</g>
</svg>
